<?xml version="1.0" standalone="no"?>
<!DOCTYPE svg PUBLIC "-//W3C//DTD SVG 20010904//EN"
 "http://www.w3.org/TR/2001/REC-SVG-20010904/DTD/svg10.dtd">
<svg version="1.0" xmlns="http://www.w3.org/2000/svg"
 width="850.000000pt" height="850.000000pt" viewBox="0 0 850.000000 850.000000"
 preserveAspectRatio="xMidYMid meet">
<metadata>
Created by potrace 1.14, written by Peter Selinger 2001-2017
</metadata>
<g transform="translate(0.000000,850.000000) scale(0.100000,-0.100000)"
fill="#000000" stroke="none">
<path d="M0 4250 l0 -4250 4250 0 4250 0 0 4250 0 4250 -4250 0 -4250 0 0
-4250z m2410 1651 l0 -79 -72 -7 c-227 -22 -326 -64 -375 -160 -45 -87 -46
-101 -50 -729 l-4 -598 28 6 c132 33 240 123 688 571 400 399 591 604 658 702
64 95 47 148 -55 177 -45 13 -196 36 -235 36 -10 0 -13 22 -13 80 l0 80 660 0
660 0 0 -80 c0 -57 -4 -80 -12 -80 -7 0 -60 -7 -117 -15 -239 -34 -369 -83
-520 -195 -45 -33 -263 -237 -484 -453 -221 -216 -471 -460 -554 -541 -84 -82
-153 -153 -153 -158 0 -16 750 -885 1089 -1263 209 -232 409 -432 481 -480 80
-53 184 -89 310 -107 l95 -14 3 -77 3 -77 -440 0 -439 0 -219 253 c-121 138
-430 500 -687 802 -257 303 -486 567 -509 588 -58 53 -131 87 -189 87 l-48 0
0 -602 c0 -332 5 -636 10 -677 26 -196 103 -255 375 -285 l110 -12 3 -77 3
-77 -731 0 -731 0 3 77 3 77 108 12 c141 16 192 29 254 64 63 36 98 100 113
205 13 95 13 2575 0 2670 -27 187 -99 239 -367 267 l-113 12 0 78 0 78 730 0
730 0 0 -79z m3995 -1 l0 -75 -65 -8 c-150 -19 -263 -46 -309 -74 -62 -39 -97
-109 -111 -223 -13 -112 -13 -2539 0 -2633 12 -81 39 -138 79 -166 61 -44 127
-52 466 -58 491 -9 554 5 699 157 99 104 190 243 276 424 l70 144 77 -20 c43
-11 81 -23 85 -26 11 -12 -57 -263 -233 -870 l-10 -32 -1270 0 -1270 0 3 77 3
77 108 12 c304 34 391 90 417 270 14 101 13 2573 -1 2667 -28 181 -95 231
-350 264 l-129 17 0 78 0 78 733 -2 732 -3 0 -75z"/>
</g>
</svg>
